<svg xmlns="http://www.w3.org/2000/svg" viewBox="0 0 1024 1024" width="1024" height="1024">
  <rect width="1024" height="1024" rx="220" fill="#0f172a"/>
  <rect x="160" y="160" width="704" height="704" rx="80" fill="#1e293b"/>
  <rect x="160" y="160" width="704" height="16" rx="8" fill="#0ea5e9"/>
  <rect x="240" y="300" width="60" height="60" rx="14" fill="#0ea5e9"/>
  <polyline points="255,330 278,353 305,318" fill="none" stroke="#fff" stroke-width="10" stroke-linecap="round" stroke-linejoin="round"/>
  <rect x="336" y="318" width="320" height="24" rx="12" fill="#334155"/>
  <rect x="240" y="420" width="60" height="60" rx="14" fill="#0ea5e9"/>
  <polyline points="255,450 278,473 305,438" fill="none" stroke="#fff" stroke-width="10" stroke-linecap="round" stroke-linejoin="round"/>
  <rect x="336" y="438" width="240" height="24" rx="12" fill="#334155"/>
  <rect x="240" y="540" width="60" height="60" rx="14" fill="none" stroke="#475569" stroke-width="6"/>
  <rect x="336" y="558" width="280" height="24" rx="12" fill="#475569"/>
  <rect x="240" y="660" width="60" height="60" rx="14" fill="none" stroke="#475569" stroke-width="6"/>
  <rect x="336" y="678" width="200" height="24" rx="12" fill="#475569"/>
</svg>
